<svg id="visual" viewBox="0 0 960 540" width="960" height="540" xmlns="http://www.w3.org/2000/svg" xmlns:xlink="http://www.w3.org/1999/xlink" version="1.1"><rect x="0" y="0" width="960" height="540" fill="#140021"></rect><path d="M0 274L137 274L137 252L274 252L274 228L411 228L411 306L549 306L549 292L686 292L686 224L823 224L823 286L960 286L960 343L960 541L960 541L823 541L823 541L686 541L686 541L549 541L549 541L411 541L411 541L274 541L274 541L137 541L137 541L0 541Z" fill="#560090"></path><path d="M0 322L137 322L137 405L274 405L274 413L411 413L411 403L549 403L549 349L686 349L686 386L823 386L823 335L960 335L960 359L960 541L960 541L823 541L823 541L686 541L686 541L549 541L549 541L411 541L411 541L274 541L274 541L137 541L137 541L0 541Z" fill="#7700c6"></path><path d="M0 469L137 469L137 429L274 429L274 398L411 398L411 421L549 421L549 410L686 410L686 398L823 398L823 462L960 462L960 410L960 541L960 541L823 541L823 541L686 541L686 541L549 541L549 541L411 541L411 541L274 541L274 541L137 541L137 541L0 541Z" fill="#9900ff"></path></svg>