<svg id="visual" viewBox="0 0 960 540" width="960" height="540" xmlns="http://www.w3.org/2000/svg" xmlns:xlink="http://www.w3.org/1999/xlink" version="1.1"><rect x="0" y="0" width="960" height="540" fill="#140021"></rect><path d="M0 312L137 312L137 252L274 252L274 208L411 208L411 196L549 196L549 231L686 231L686 212L823 212L823 218L960 218L960 230L960 0L960 0L823 0L823 0L686 0L686 0L549 0L549 0L411 0L411 0L274 0L274 0L137 0L137 0L0 0Z" fill="#560090"></path><path d="M0 202L137 202L137 153L274 153L274 221L411 221L411 207L549 207L549 162L686 162L686 180L823 180L823 197L960 197L960 221L960 0L960 0L823 0L823 0L686 0L686 0L549 0L549 0L411 0L411 0L274 0L274 0L137 0L137 0L0 0Z" fill="#7700c6"></path><path d="M0 119L137 119L137 50L274 50L274 71L411 71L411 130L549 130L549 100L686 100L686 113L823 113L823 106L960 106L960 114L960 0L960 0L823 0L823 0L686 0L686 0L549 0L549 0L411 0L411 0L274 0L274 0L137 0L137 0L0 0Z" fill="#9900ff"></path></svg>